GRF
version=1
nRows=34
nColumns=19
inDegrees=no
endheader
time	ground_force_vx	ground_force_vy	ground_force_vz	ground_force_px	ground_force_py	ground_force_pz	ground_torque_x	ground_torque_y	ground_torque_z	1_ground_force_vx	1_ground_force_vy	1_ground_force_vz	1_ground_force_px	1_ground_force_py	1_ground_force_pz	1_ground_torque_x	1_ground_torque_y	1_ground_torque_z
      5.25000000	    -62.03192981	    660.23493856	    -29.42357271	      0.16522624	      0.00000000	      0.11451335	     -0.00000000	     -0.74133400	      0.00000000	      0.00000000	      0.00000000	     -0.00000000	     -0.05072021	     -0.00000000	     -0.14836215	     -0.00000000	     -0.69297043	      0.00000000
      5.25100000	    -62.03978732	    659.89988337	    -29.26088681	      0.16524864	      0.00000000	      0.11418353	     -0.00000000	     -0.74861075	      0.00000000	      0.00000000	      0.00000000	     -0.00000000	     -0.05058901	     -0.00000000	     -0.14725084	     -0.00000000	     -0.69758143	      0.00000000
      5.25200000	    -62.05104984	    659.58233910	    -29.09628018	      0.16527114	      0.00000000	      0.11385135	     -0.00000000	     -0.75624461	      0.00000000	      0.00000000	      0.00000000	     -0.00000000	     -0.05045782	     -0.00000000	     -0.14613952	     -0.00000000	     -0.70219243	      0.00000000
      5.25300000	    -62.06577723	    659.28221035	    -28.92981822	      0.16529370	      0.00000000	      0.11351684	     -0.00000000	     -0.76417661	      0.00000000	      0.00000000	      0.00000000	     -0.00000000	     -0.05032662	     -0.00000000	     -0.14502821	     -0.00000000	     -0.70680343	      0.00000000
      5.25400000	    -62.08403140	    658.99938933	    -28.76156726	      0.16531627	      0.00000000	      0.11318003	     -0.00000000	     -0.77234497	      0.00000000	      0.00000000	      0.00000000	     -0.00000000	     -0.05019543	     -0.00000000	     -0.14391689	     -0.00000000	     -0.71141443	      0.00000000
      5.25500000	    -62.10587376	    658.73375581	    -28.59159399	      0.16533880	      0.00000000	      0.11284095	     -0.00000000	     -0.78068601	      0.00000000	      0.00000000	      0.00000000	     -0.00000000	     -0.05006423	     -0.00000000	     -0.14280558	     -0.00000000	     -0.71602543	      0.00000000
      5.25600000	    -62.13136279	    658.48517711	    -28.41996489	      0.16536124	      0.00000000	      0.11249963	     -0.00000000	     -0.78913499	      0.00000000	      0.00000000	      0.00000000	     -0.00000000	     -0.04993304	     -0.00000000	     -0.14169426	     -0.00000000	     -0.72063643	      0.00000000
      5.25700000	    -62.16055155	    658.25350819	    -28.24674564	      0.16538355	      0.00000000	      0.11215612	     -0.00000000	     -0.79762696	      0.00000000	      0.00000000	      0.00000000	     -0.00000000	     -0.04980184	     -0.00000000	     -0.14058295	     -0.00000000	     -0.72524742	      0.00000000
      5.25800000	    -62.19348526	    658.03859178	    -28.07200053	      0.16540568	      0.00000000	      0.11181043	     -0.00000000	     -0.80609762	      0.00000000	      0.00000000	      0.00000000	     -0.00000000	     -0.04967064	     -0.00000000	     -0.13947163	     -0.00000000	     -0.72985842	      0.00000000
      5.25900000	    -62.23019905	    657.84025854	    -27.89579187	      0.16542759	      0.00000000	      0.11146258	     -0.00000000	     -0.81448417	      0.00000000	      0.00000000	      0.00000000	     -0.00000000	     -0.04953945	     -0.00000000	     -0.13836032	     -0.00000000	     -0.73446942	      0.00000000
      5.26000000	    -62.27071580	    657.65832735	    -27.71817943	      0.16544923	      0.00000000	      0.11111260	     -0.00000000	     -0.82272608	      0.00000000	      0.00000000	      0.00000000	     -0.00000000	     -0.04940825	     -0.00000000	     -0.13724900	     -0.00000000	     -0.73908042	      0.00000000
      5.26100000	    -62.31504418	    657.49260561	    -27.53921984	      0.16547056	      0.00000000	      0.11076051	     -0.00000000	     -0.83076584	      0.00000000	      0.00000000	      0.00000000	     -0.00000000	     -0.04927706	     -0.00000000	     -0.13613769	     -0.00000000	     -0.74369142	      0.00000000
      5.26200000	    -62.36317688	    657.34288958	    -27.35896612	      0.16549155	      0.00000000	      0.11040631	     -0.00000000	     -0.83854969	      0.00000000	      0.00000000	      0.00000000	     -0.00000000	     -0.04914586	     -0.00000000	     -0.13502637	     -0.00000000	     -0.74830242	      0.00000000
      5.26300000	    -62.41508912	    657.20896492	    -27.17746716	      0.16551217	      0.00000000	      0.11005002	     -0.00000000	     -0.84602821	      0.00000000	      0.00000000	      0.00000000	     -0.00000000	     -0.04901467	     -0.00000000	     -0.13391506	     -0.00000000	     -0.75291342	      0.00000000
      5.26400000	    -62.47073740	    657.09060708	    -26.99476725	      0.16553237	      0.00000000	      0.10969163	     -0.00000000	     -0.85315690	      0.00000000	      0.00000000	      0.00000000	     -0.00000000	     -0.04888347	     -0.00000000	     -0.13280374	     -0.00000000	     -0.75752442	      0.00000000
      5.26500000	    -62.53005853	    656.98758194	    -26.81090575	      0.16555214	      0.00000000	      0.10933113	     -0.00000000	     -0.85989668	      0.00000000	      0.00000000	      0.00000000	     -0.00000000	     -0.04875228	     -0.00000000	     -0.13169243	     -0.00000000	     -0.76213542	      0.00000000
      5.26600000	    -62.59296895	    656.89964641	    -26.62591668	      0.16557144	      0.00000000	      0.10896852	     -0.00000000	     -0.86621423	      0.00000000	      0.00000000	      0.00000000	     -0.00000000	     -0.04862108	     -0.00000000	     -0.13058111	     -0.00000000	     -0.76674641	      0.00000000
      5.26700000	    -62.65936442	    656.82654903	    -26.43982848	      0.16559026	      0.00000000	      0.10860378	     -0.00000000	     -0.87208234	      0.00000000	      0.00000000	      0.00000000	     -0.00000000	     -0.04848989	     -0.00000000	     -0.12946980	     -0.00000000	     -0.77135741	      0.00000000
      5.26800000	    -62.72911994	    656.76803075	    -26.25266374	      0.16560857	      0.00000000	      0.10823688	     -0.00000000	     -0.87748009	      0.00000000	      0.00000000	      0.00000000	     -0.00000000	     -0.04835869	     -0.00000000	     -0.12835848	     -0.00000000	     -0.77596841	      0.00000000
      5.26900000	    -62.80209004	    656.72382563	    -26.06443907	      0.16562637	      0.00000000	      0.10786779	     -0.00000000	     -0.88239301	      0.00000000	      0.00000000	      0.00000000	     -0.00000000	     -0.04822750	     -0.00000000	     -0.12724717	     -0.00000000	     -0.78057941	      0.00000000
      5.27000000	    -62.87810944	    656.69366158	    -25.87516499	      0.16564364	      0.00000000	      0.10749649	     -0.00000000	     -0.88681304	      0.00000000	      0.00000000	      0.00000000	     -0.00000000	     -0.04809630	     -0.00000000	     -0.12613585	     -0.00000000	     -0.78519041	      0.00000000
      5.27100000	    -62.95699389	    656.67726121	    -25.68484589	      0.16566038	      0.00000000	      0.10712293	     -0.00000000	     -0.89073851	      0.00000000	      0.00000000	      0.00000000	     -0.00000000	     -0.04796510	     -0.00000000	     -0.12502454	     -0.00000000	     -0.78980141	      0.00000000
      5.27200000	    -63.03854142	    656.67434261	    -25.49348011	      0.16567658	      0.00000000	      0.10674707	     -0.00000000	     -0.89417396	      0.00000000	      0.00000000	      0.00000000	     -0.00000000	     -0.04783391	     -0.00000000	     -0.12391322	     -0.00000000	     -0.79441241	      0.00000000
      5.27300000	    -63.12253382	    656.68462016	    -25.30105996	      0.16569225	      0.00000000	      0.10636887	     -0.00000000	     -0.89712991	      0.00000000	      0.00000000	      0.00000000	     -0.00000000	     -0.04770271	     -0.00000000	     -0.12280191	     -0.00000000	     -0.79902341	      0.00000000
      5.27400000	    -63.20873840	    656.70780537	    -25.10757199	      0.16570738	      0.00000000	      0.10598827	     -0.00000000	     -0.89962249	      0.00000000	      0.00000000	      0.00000000	     -0.00000000	     -0.04757152	     -0.00000000	     -0.12169059	     -0.00000000	     -0.80363441	      0.00000000
      5.27500000	    -63.29690993	    656.74360775	    -24.91299714	      0.16572199	      0.00000000	      0.10560523	     -0.00000000	     -0.90167308	      0.00000000	      0.00000000	      0.00000000	     -0.00000000	     -0.04744032	     -0.00000000	     -0.12057927	     -0.00000000	     -0.80824540	      0.00000000
      5.27600000	    -63.38679288	    656.79173555	    -24.71731112	      0.16573609	      0.00000000	      0.10521970	     -0.00000000	     -0.90330782	      0.00000000	      0.00000000	      0.00000000	     -0.00000000	     -0.04730913	     -0.00000000	     -0.11946796	     -0.00000000	     -0.81285640	      0.00000000
      5.27700000	    -63.47812377	    656.85189665	    -24.52048472	      0.16574969	      0.00000000	      0.10483164	     -0.00000000	     -0.90455706	      0.00000000	      0.00000000	      0.00000000	     -0.00000000	     -0.04717793	     -0.00000000	     -0.11835664	     -0.00000000	     -0.81746740	      0.00000000
      5.27800000	    -63.57063364	    656.92379933	    -24.32248425	      0.16576281	      0.00000000	      0.10444099	     -0.00000000	     -0.90545482	      0.00000000	      0.00000000	      0.00000000	     -0.00000000	     -0.04704674	     -0.00000000	     -0.11724533	     -0.00000000	     -0.82207840	      0.00000000
      5.27900000	    -63.66405067	    657.00715307	    -24.12327206	      0.16577547	      0.00000000	      0.10404773	     -0.00000000	     -0.90603813	      0.00000000	      0.00000000	      0.00000000	     -0.00000000	     -0.04691554	     -0.00000000	     -0.11613401	     -0.00000000	     -0.82668940	      0.00000000
      5.28000000	    -63.75810287	    657.10166929	    -23.92280704	      0.16578769	      0.00000000	      0.10365181	     -0.00000000	     -0.90634637	      0.00000000	      0.00000000	      0.00000000	     -0.00000000	     -0.04678435	     -0.00000000	     -0.11502270	     -0.00000000	     -0.83130040	      0.00000000
      5.28100000	    -63.85252077	    657.20706208	    -23.72104525	      0.16579948	      0.00000000	      0.10325320	     -0.00000000	     -0.90642061	      0.00000000	      0.00000000	      0.00000000	     -0.00000000	     -0.04665315	     -0.00000000	     -0.11391138	     -0.00000000	     -0.83591140	      0.00000000
      5.28200000	    -63.94704010	    657.32304896	    -23.51794052	      0.16581088	      0.00000000	      0.10285189	     -0.00000000	     -0.90630289	      0.00000000	      0.00000000	      0.00000000	     -0.00000000	     -0.04652195	     -0.00000000	     -0.11280007	     -0.00000000	     -0.84052240	      0.00000000
      5.28300000	    -64.04140443	    657.44935148	    -23.31344519	      0.16582191	      0.00000000	      0.10244785	     -0.00000000	     -0.90603556	      0.00000000	      0.00000000	      0.00000000	     -0.00000000	     -0.04639076	     -0.00000000	     -0.11168875	     -0.00000000	     -0.84513340	      0.00000000
